/* XPM */
static char *cf1976ea30c24166d93c805422ff2a01[] = {
/* columns rows colors chars-per-pixel */
"128 128 2 1 ",
"  c #283891",
". c None",
/* pixels */
"................................................................................................................................",
"................................................................................................................................",
"................................................................................................................................",
"................................................................................................................................",
"................................................................................................................................",
"................................................................................................................................",
"................................................................................................................................",
"................................................................................................................................",
"................................................................................................................................",
"................................................................................................................................",
"................................................................................................................................",
"................................................................................................................................",
"................................................................................................................................",
"................................................................................................................................",
"................................................................................................................................",
"..................                                                                                              ................",
"..................                                                                                              ................",
"..................                                                                                              ................",
"..................                                                                                              ................",
"..................                                                                                              ................",
"..................                                                                                              ................",
"..................                                                                                              ................",
"..................                                                                                              ................",
"..................                                                                                              ................",
"..................         ...........................................................................          ................",
"..................         ...........................................................................          ................",
"..................         ...........................................................................          ................",
"..................         ...........................................................................          ................",
"..................         ...........................................................................          ................",
"..................         ...........................................................................          ................",
"..................         ...........................................................................          ................",
"..................         ...........................................................................          ................",
"..................         ...........................................................................          ................",
"..................         ...........................................................................          ................",
"..................         ...........................................................................          ................",
"......................................................................................................          ................",
"......................................................................................................          ................",
"..................               .............................                 .......................          ................",
"..................               .............................                 .......................          ................",
"..................               .............................                  ......................          ................",
"..................                ...........................                    .....................          ................",
"..................                ...........................                    .....................          ................",
"..................                ...........................                     ....................          ................",
"..................                 .........................                      ....................          ................",
"..................                 .........................                       ...................          ................",
"..................                 .........................                       ...................          ................",
"..................                  .......................                         ..................          ................",
"..................                  .......................                          .................          ................",
"..................                   ......................                          .................          ................",
"..................                   .....................                            ................          ................",
"..................                   .....................                            ................          ................",
"..................                   .....................                             ...............          ................",
"..................                    ...................                              ...............          ................",
"..................                    ...................                               ..............          ................",
"..................          ..         .................         ..          .           .............          ................",
"..................          ..         .................         ..          ..          .............          ................",
"..................          ..         .................         ..          ..           ............          ................",
"..................           ..         ................        ..           ...          ............          ................",
"..................           ..         ...............         ..           ....          ...........          ................",
"..................           ..         ...............         ..           ....          ...........          ................",
"..................           ...         .............         ...           .....          ..........          ................",
"..................           ...         .............         ...           .....           .........          ................",
"..................           ...         .............         ...           ......          .........          ................",
"..................           ....         ...........         ....           ......           ........          ................",
"..................           ....         ...........         ....           .......          ........          ................",
"..................           ....         ...........         ....           ........          .......          ................",
"..................           .....         .........         .....           ........          .......          ................",
"..................           .....         .........         .....           .........          ......          ................",
"..................           .....         .........         .....           .........           .....          ................",
"..................           ......         .......         ......           ..........          .....          ................",
"..................           ......         .......         ......           ..........           ....          ................",
"..................           ......          ......         ......           ...........          ....          ................",
"..................           .......         .....         .......           ............          ...          ................",
"..................           .......         .....         .......           ............          ...          ................",
"..................           .......          ....        ........           .............          ..          ................",
"..................           ........         ...         ........           .............          ..          ................",
"..................           ........         ...         ........           ..............          .          ................",
"..................           ........          .          ........           ..............                     ................",
"..................           .........         .         .........           ...............                    ................",
"..................           .........                   .........           ................                   ................",
"..................           ..........                 ..........           ................                   ................",
"..................           ..........                 ..........           .................                  ................",
"..................           ..........                 ..........           .................                  ................",
"..................           ...........               ...........           ..................                 ................",
"..................           ...........               ...........           ..................                 ................",
"..................           ...........               ...........           ...................                ................",
"..................           ............             ............           ....................               ................",
"..................           ............             ............           ....................               ................",
"..................           ............             ............           .....................              ................",
"..................           .............           .............           .....................              ................",
"..................           .............           .............           ......................             ................",
"..................           .............           .............           .......................            ................",
"..................           ..............         ..............           .......................            ................",
"..................           ..............         ...............          ........................           ................",
"..................           ...................................................................................................",
"..................           ...................................................................................................",
"..................           ...........................................................................        ................",
"..................           ...........................................................................        ................",
"..................           ...........................................................................        ................",
"..................           ...........................................................................        ................",
"..................           ...........................................................................        ................",
"..................           ...........................................................................        ................",
"..................           ...........................................................................        ................",
"..................           ...........................................................................        ................",
"..................           ...........................................................................        ................",
"..................          ............................................................................        ................",
"..................           ..........................................................................         ................",
"..................                                                                                              ................",
"..................                                                                                              ................",
"..................                                                                                              ................",
"..................                                                                                              ................",
"..................                                                                                              ................",
"..................                                                                                              ................",
"..................                                                                                              ................",
"..................                                                                                              ................",
"...................                                                                                             ................",
"................................................................................................................................",
"................................................................................................................................",
"................................................................................................................................",
"................................................................................................................................",
"................................................................................................................................",
"................................................................................................................................",
"................................................................................................................................",
"................................................................................................................................",
"................................................................................................................................",
"................................................................................................................................",
"................................................................................................................................",
"................................................................................................................................"
};
