/* XPM */
static char *fd0986844acc44c7b0ce751c5564e82d[] = {
/* columns rows colors chars-per-pixel */
"64 64 2 1 ",
"  c #283891",
". c None",
/* pixels */
"................................................................",
"................................................................",
"................................................................",
"................................................................",
"................................................................",
"................................................................",
"................................................................",
"................................................................",
"................................................................",
"..........                                             .........",
"..........                                             .........",
"..........                                             .........",
"..........                                             .........",
"..........     ...................................     .........",
"..........     ...................................     .........",
"..........     ...................................     .........",
"..........     ...................................     .........",
"..........     ...................................     .........",
"..................................................     .........",
"...........      ..............        ...........     .........",
"..........        .............         ..........     .........",
"..........        .............         ..........     .........",
"..........        ............           .........     .........",
"..........         ...........           .........     .........",
"..........         ..........             ........     .........",
"..........         ..........             ........     .........",
"..........          .........              .......     .........",
"..........     .    ........          .     ......     .........",
"..........     .     .......    .     .     ......     .........",
"..........     ..    .......    .     ..     .....     .........",
"..........     ..    ......     .     ..     .....     .........",
"..........     ..     .....    ..     ...     ....     .........",
"..........     ...    .....    ..     ....    ....     .........",
"..........     ...    ....    ...     ....     ...     .........",
"..........     ...     ...    ...     .....     ..     .........",
"..........     ....    ...    ...     .....     ..     .........",
"..........     ....    ..    ....     ......     .     .........",
"..........     ....     .    ....     .......          .........",
"..........     .....         ....     .......          .........",
"..........     .....        .....     ........         .........",
"..........     .....        .....     ........         .........",
"..........     ......       .....     .........        .........",
"..........     ......      ......     .........        .........",
"..........     ......      ......     ..........       .........",
"..........     .......     ......     ...........      .........",
"..........     .......    ........    ...........     ..........",
"..........     .................................................",
"..........     ....................................    .........",
"..........     ....................................    .........",
"..........     ....................................    .........",
"..........     ....................................    .........",
"..........      ..................................     .........",
"..........                                             .........",
"..........                                             .........",
"..........                                             .........",
"...........                                            .........",
"................................................................",
"................................................................",
"................................................................",
"................................................................",
"................................................................",
"................................................................",
"................................................................",
"................................................................"
};
