/* XPM */
static char *b99991448563431b954d0d64a654e8a8[] = {
/* columns rows colors chars-per-pixel */
"32 32 2 1 ",
"  c #283891",
". c None",
/* pixels */
"................................",
"................................",
"................................",
"....                        ....",
"....                        ....",
"....   ...................  ....",
"....  ....................  ....",
"....  ....................  ....",
"..........................  ....",
"....    .......     ......  ....",
"....    .......      .....  ....",
"....     ......      .....  ....",
"....     .....        ....  ....",
"....     .....         ...  ....",
"....      ....  .  ..  ...  ....",
"....   .  ...   .   .   ..  ....",
"....   .   ..  ..   ..  ..  ....",
"....   .   ..  ..   ..   .  ....",
"....   ..  .   ..   ...     ....",
"....   ..     ...   ...     ....",
"....   ...    ...   ....    ....",
"....   ...    ...   ....    ....",
"....   ...   ....   .....   ....",
"....   ....  ....  .......  ....",
"....   .................... ....",
"....   ...................  ....",
"....   ...................  ....",
"....                        ....",
"....                        ....",
"................................",
"................................",
"................................"
};
