/* XPM */
static char *e1af57277be947c79c98da6af16b9df2[] = {
/* columns rows colors chars-per-pixel */
"16 16 6 1 ",
"  c #283890",
". c #293990",
"X c #283891",
"o c #293991",
"O c #2A3A90",
"+ c None",
/* pixels */
"++++++++++++++++",
"++++++++++++++++",
"++++++++++++++++",
"+++XXXXXXXXXX+++",
"+++X++++++++X+++",
"+++XX+++XX++X+++",
"+++XX++XXXO+X+++",
"+++XX++XXXX+X+++",
"+++X+X+XO++XX+++",
"+++X+XX+XX+XX+++",
"+++X++X+OX++X+++",
"+++X++++++++++++",
"+++XX+++++++X+++",
"+++XXXXXXXXXX+++",
"++++++++++++++++",
"++++++++++++++++"
};
